<svg height="512" viewBox="0 0 512 512" width="512" xmlns="http://www.w3.org/2000/svg"><g id="Flat"><path d="m488 120-96-96h-192v408h288z" fill="#f0de9c"/><g fill="#f0c033"><path d="m392 24v96h96z"/><path d="m240 104h64v16h-64z"/><path d="m240 136h64v16h-64z"/><path d="m304 168h48v16h-48z"/><path d="m368 168h48v16h-48z"/><path d="m432 168h32v16h-32z"/><path d="m240 200h80v16h-80z"/><path d="m336 200h48v16h-48z"/><path d="m400 200h64v16h-64z"/><path d="m240 232h96v16h-96z"/><path d="m352 232h48v16h-48z"/><path d="m416 232h48v16h-48z"/><path d="m240 264h64v16h-64z"/><path d="m320 264h48v16h-48z"/><path d="m384 264h80v16h-80z"/><path d="m368 320h48v16h-48z"/><path d="m368 352h48v16h-48z"/></g><path d="m152 384h48v48h-48z" fill="#c6d6e2"/><circle cx="176" cy="248" fill="#37a0c5" r="152"/><path d="m136 432h80v120h-80z" fill="#37a0c5"/><circle cx="176" cy="248" fill="#8ccee9" r="120"/><path d="m112 176h32v16h-32z" fill="#90c937"/><path d="m160 176h48v16h-48z" fill="#90c937"/><path d="m224 176h32v16h-32z" fill="#90c937"/><path d="m80 208h48v16h-48z" fill="#90c937"/><path d="m144 208h64v16h-64z" fill="#90c937"/><path d="m224 208h48v16h-48z" fill="#90c937"/><path d="m80 240h80v16h-80z" fill="#90c937"/><path d="m176 240h48v16h-48z" fill="#90c937"/><path d="m240 240h32v16h-32z" fill="#90c937"/><path d="m80 272h48v16h-48z" fill="#90c937"/><path d="m144 272h64v16h-64z" fill="#90c937"/><path d="m224 272h48v16h-48z" fill="#90c937"/><path d="m112 304h48v16h-48z" fill="#90c937"/><path d="m176 304h64v16h-64z" fill="#90c937"/></g></svg>